# xmcd CD database file
#
# Track frame offsets:
#	150
#	10800
#	21525
#	30750
#	44325
#	57375
#	71325
#	84825
#	95925
#	119025
#	139875
#	155625
#	165300
#	175200
#	186150
#	199800
#	209550
#	223050
#
# Disc length: 3161 seconds
#
# Revision: 7
# Processed by: cddbd v1.5.2PL0 Copyright (c) Steve Scherf et al.
# Submitted via: CDex 1.51
#
DISCID=060c5712
DTITLE=Various Artist - Keep on Running 3 - CD 1
DYEAR=1992
DGENRE=Oldies
TTITLE0=The Kinks: All Day and all of the Night
TTITLE1=Manfred Mann: Do wah diddy diddy
TTITLE2=The Byrds: All I really want to do
TTITLE3=Shocking Blue: Venus
TTITLE4=The Hollies: Bus stop
TTITLE5=The Smoke: My Friend Jack
TTITLE6=Love Affair: Everlasting Love
TTITLE7=The Searchers: Sweets for my Sweet
TTITLE8=Joe Cocker: With a little help from my Friends
TTITLE9=Keith West: Excerpt from a Teenage Opera
TTITLE10=Zombies: Time of the Season
TTITLE11=The Kinks: Dandy
TTITLE12=The Searchers: Needles and Pins
TTITLE13=Yardbirds: For your Love
TTITLE14=The McCoys: Hang on Sloopy
TTITLE15=The American Breed: Bend me, shape me
TTITLE16=The Equals: Viva Bobby Joe
TTITLE17=Georgie Fame: The Ballad of Bonnie and Clyde
EXTD=YEAR: 1992
EXTT0=
EXTT1=
EXTT2=
EXTT3=
EXTT4=
EXTT5=
EXTT6=
EXTT7=
EXTT8=
EXTT9=
EXTT10=
EXTT11=
EXTT12=
EXTT13=
EXTT14=
EXTT15=
EXTT16=
EXTT17=
PLAYORDER=
